<svg width="84" height="82" viewBox="0 0 84 82" fill="none" xmlns="http://www.w3.org/2000/svg">
<path fill-rule="evenodd" clip-rule="evenodd" d="M55.9879 57.0611C73.773 56.2332 82.9187 43.8608 82.9187 31.57C82.9187 14.6059 67.5094 6.38043 48.5012 6.38043C29.4929 6.38043 12.3427 20.6462 12.3427 34.558C12.3427 41.8517 17.0567 47.6001 24.2812 51.4186L19.4804 54.1903L19.4818 54.1928C19.0797 54.2994 18.7065 54.4921 18.3868 54.7749C17.0714 55.9385 17.1592 58.1865 18.5829 59.7958C19.9206 61.308 21.9619 61.7183 23.2947 60.7969L23.3741 60.9344L33.7025 54.9713C37.7014 55.9944 42.0387 56.5922 46.5106 56.7292V71.6565V71.7189H46.5117C46.5668 73.3098 48.7226 74.5893 51.374 74.5893C54.0599 74.5893 56.2373 73.2762 56.2373 71.6565C56.2373 71.3316 56.1497 71.019 55.9879 70.7269V57.0611Z" fill="#FDB7CA"/>
<g style="mix-blend-mode:multiply">
<path d="M23.6904 50.958C25.7755 48.711 27.4554 47.9081 31.9207 47.8006C36.3859 47.693 34.346 53.3943 37.5322 53.9891C39.6465 54.3837 40.7554 52.9455 42.8944 52.7261C48.2074 52.1812 56.2374 55.7572 56.2374 55.7572" stroke="#FDB7CA" stroke-width="0.6"/>
</g>
<g style="mix-blend-mode:multiply">
<path d="M20.3235 48.8109C20.3235 48.8109 28.38 42.3476 34.0405 43.3802C37.9779 44.0985 38.792 48.3766 42.7697 48.8109C45.7999 49.1418 47.3425 46.7479 50.3764 47.0428C55.4277 47.5337 60.7266 54.9994 60.7266 54.9994" stroke="#FDB7CA" stroke-width="0.6"/>
</g>
<g style="mix-blend-mode:multiply">
<path d="M23.441 46.6639C23.441 46.6639 28.5698 38.7701 33.7911 37.4443C40.3095 35.7892 43.237 42.5889 49.8776 43.6328C54.7861 44.4045 58.0529 41.6012 62.5971 43.6328C66.8189 45.5203 70.8274 52.2209 70.8274 52.2209" stroke="#FDB7CA" stroke-width="0.6"/>
</g>
<g style="mix-blend-mode:multiply">
<path d="M61.3501 14.206C53.6347 16.5233 49.3125 42.9855 62.0982 43.254C74.884 43.5225 69.8297 45.2747 74.693 44.2643C79.5563 43.254 77.8106 36.0551 77.8106 36.0551" stroke="#FDB7CA" stroke-width="0.6"/>
</g>
<g style="mix-blend-mode:multiply">
<path d="M77.9353 36.5602C77.9353 36.5602 82.5871 33.5409 82.7987 30.498C82.9808 27.8793 82.1281 25.828 79.9305 24.4359C77.0555 22.6146 73.9105 28.6947 71.4508 26.3303C69.0231 23.9966 72.6978 17.7422 72.6978 17.7422" stroke="#FDB7CA" stroke-width="0.5"/>
</g>
<g style="mix-blend-mode:multiply">
<path d="M65.59 17.1108C60.3921 31.3259 60.8667 35.8424 67.4605 37.9495C67.4605 37.9495 74.4437 38.9599 72.9473 35.5499C71.4509 32.1399 82.4636 34.3523 81.9258 30.2455" stroke="#FDB7CA" stroke-width="0.6"/>
</g>
<g style="mix-blend-mode:multiply">
<path d="M25.561 44.138C25.561 44.138 15.2455 38.3331 15.2107 31.9575C15.1893 28.0246 24.1792 18.3783 23.3163 15.8478" stroke="#FDB7CA" stroke-width="0.6"/>
</g>
<g style="mix-blend-mode:multiply">
<path d="M29.4266 40.0731C29.4266 40.0731 31.1786 37.6156 31.796 35.814C33.8321 29.8726 24.0537 25.8472 27.182 20.4058C29.4057 16.538 33.8404 17.8676 37.1581 14.8939C38.7274 13.4874 39.2025 12.2888 40.7744 10.8853C43.2592 8.66674 48.0071 6.37561 48.0071 6.37561" stroke="#FDB7CA" stroke-width="0.6"/>
</g>
<g style="mix-blend-mode:multiply">
<path d="M46.3859 7.38599C46.3859 7.38599 45.3748 12.4831 46.3859 15.4689C47.4965 18.7483 50.4571 19.1928 51.9975 22.2889C53.8713 26.0552 53.9927 32.8977 53.9927 32.8977" stroke="#FDB7CA" stroke-width="0.6"/>
</g>
<g style="mix-blend-mode:multiply">
<path d="M68.0839 18.3737C68.0839 18.3737 63.116 35.1654 69.2062 34.2869C71.975 33.8876 72.4018 30.9769 75.0671 30.1192C77.7591 29.253 82.2998 30.1192 82.2998 30.1192M52.1222 7.13342C52.1222 7.13342 51.003 10.6369 52.1222 12.3115C53.0025 13.6287 54.6231 13.0981 55.6138 14.3323C56.4983 15.4341 56.8609 17.7422 56.8609 17.7422" stroke="#FDB7CA" stroke-width="0.6"/>
</g>
<g style="mix-blend-mode:plus-darker">
<g style="mix-blend-mode:multiply">
<path d="M33.6041 55.009L27.4937 58.3759C25.5697 56.34 24.9374 51.3927 24.9374 51.3927C24.9374 51.3927 29.5407 53.7272 33.6041 55.009Z" fill="#FBC4A5"/>
</g>
<g style="mix-blend-mode:multiply">
<path d="M46.4484 56.6925L39.8392 56.256C51.7052 55.0716 58.2807 54.4643 74.0696 50.3951C69.5305 53.7584 65.8589 55.3299 55.9256 57.1913V65.6709C50.7886 63.9642 48.8248 61.8596 46.4484 56.6925Z" fill="#FBC4A5"/>
</g>
<g style="mix-blend-mode:multiply">
<path d="M79.9251 21.7142C78.7318 24.0754 72.115 23.1344 65.1461 19.6124C58.1772 16.0905 52.8269 10.2732 54.0202 7.91205C55.2134 5.55088 62.4985 7.53994 69.4674 11.0619C76.4363 14.5838 81.1184 19.353 79.9251 21.7142Z" fill="#FBC4A5"/>
</g>
</g>
<path fill-rule="evenodd" clip-rule="evenodd" d="M79.6212 14.881C79.7026 15.2026 79.7459 15.5395 79.7459 15.8864C79.7459 18.1419 77.9174 19.9703 75.6619 19.9703C75.5513 19.9703 75.4417 19.9659 75.3332 19.9573C74.273 20.0311 72.6829 19.8713 70.3222 19.357C69.6818 19.8883 61.0368 15.1028 60.4347 13.8118C57.4118 11.6491 55.4004 8.93323 55.0167 6.79559C54.686 6.21759 54.4941 5.60601 54.4941 5.00626C53.8704 0.766449 56.6715 0.766418 59.3574 0.766418C60.416 0.766418 61.5119 1.15816 62.4512 1.77622C63.6306 2.24159 64.9457 3.14597 66.1339 4.39061C66.6854 4.96823 67.2454 5.55822 67.7679 6.13912C67.9025 4.81705 68.2854 4.32045 68.9593 4.32045C69.8201 4.32045 70.8297 5.44276 70.8297 7.43796C70.8297 7.81821 70.7738 8.17809 70.674 8.49863C70.7257 8.49731 70.7776 8.49664 70.8297 8.49664C73.8579 8.49664 79.6134 12.1094 79.6212 14.881Z" fill="black"/>
<path d="M19.3459 73.7141C6.42956 61.3139 0.251465 53.408 0.251465 49.9829C0.251465 46.5577 4.85867 44.8253 14.4586 48.8819C15.6647 51.039 16.2533 52.0357 17.1864 53.408C16.835 60.3864 19.7892 61.7471 23.7785 61.7261C24.7072 63.5592 24.8181 64.353 24.5741 65.5182C22.0025 71.5933 20.9343 72.9766 19.3459 73.7141Z" fill="#855838" stroke="#4F290E" stroke-width="0.5"/>
<path d="M63.4489 81.0715L27.5186 81.7573C26.5661 81.1137 26.0924 80.6635 25.5609 79.388C28.4817 73.8009 31.6908 71.3151 40.8773 68.1026C54.2693 74.3641 56.0209 70.7213 61.6277 70.0432C67.2344 69.3652 63.4489 81.0715 63.4489 81.0715Z" fill="#855838" stroke="#4F290E" stroke-width="0.5"/>
<path d="M44.8272 70.4719C44.6601 70.639 44.8492 70.1046 44.8515 70.0424C44.8682 69.5833 44.3834 67.4103 43.8296 67.3925C41.3333 67.3125 43.201 71.1403 44.2141 70.5897C45.3648 69.9643 45.3359 66.1691 47.581 67.4272C49.1182 68.2885 47.224 70.036 46.2821 70.3438C45.8991 70.4689 44.8964 69.8933 45.0766 70.2537" stroke="#4F290E" stroke-width="0.8" stroke-linecap="round"/>
<path d="M17.1125 53.762C16.836 53.6156 17.219 52.2227 17.2233 51.9538C17.2394 50.9438 16.3309 48.2609 15.3493 50.3656C14.6869 51.7861 14.7153 55.0331 16.8319 53.3013C17.2811 52.9337 19.6437 47.5351 20.7219 50.4159C21.3052 51.9745 18.8427 53.6352 17.5143 53.6719C16.9431 53.6877 17.5353 53.4083 17.6113 53.2944" stroke="#4F290E" stroke-width="0.8" stroke-linecap="round"/>
<path d="M61.9736 71.8436C62.6744 72.2302 62.9433 72.7114 63.0959 74.2753" stroke="#F4C23F" stroke-width="0.3" stroke-linecap="round"/>
<path d="M22.3811 62.9899V65.1098" stroke="#F4C23F" stroke-width="0.3" stroke-linecap="round"/>
<path d="M23.441 63.551V65.671" stroke="#F4C23F" stroke-width="0.3" stroke-linecap="round"/>
<path d="M36.9534 26.5399C36.2373 27.914 34.6321 28.8469 33.7465 28.3853C32.861 27.9238 33.0303 26.2427 33.7465 24.8685C34.4627 23.4944 36.0679 22.5616 36.9535 23.0232C37.839 23.4847 37.6696 25.1658 36.9534 26.5399Z" fill="black"/>
<path d="M53.1188 30.2499L49.1186 29.2628C48.1634 29.0271 48.1345 27.8323 49.1072 27.685C50.0641 27.5402 51.0808 27.4954 51.9069 27.7147C52.8311 27.96 53.5089 28.5344 53.9828 29.1135C54.483 29.7248 53.8857 30.4391 53.1188 30.2499Z" fill="black" stroke="black"/>
<path d="M41.7496 37.5559C40.8146 39.8635 38.9038 41.2671 37.4817 40.6909C36.0596 40.1147 35.6647 37.777 36.5997 35.4694C37.5346 33.1618 37.4496 36.6842 38.8717 37.2604C40.2938 37.8366 42.6845 35.2483 41.7496 37.5559Z" fill="black"/>
<path d="M37.3355 19.9449C37.1318 20.4754 36.5555 20.1463 35.8 19.8562C35.0445 19.5661 34.396 19.4248 34.5997 18.8944C34.8034 18.364 35.5809 18.1692 36.3364 18.4593C37.0919 18.7494 37.5392 19.4145 37.3355 19.9449Z" fill="black"/>
<path d="M56.231 23.1118C56.1408 23.8465 55.3446 23.6168 54.3428 23.4938C53.3409 23.3709 52.5128 23.4013 52.603 22.6665C52.6931 21.9318 53.5784 21.4358 54.5802 21.5588C55.5821 21.6817 56.3212 22.377 56.231 23.1118Z" fill="black"/>
<path d="M40.8994 27.5234C39.031 34.874 31.4169 39.2906 23.8858 37.3763C16.3548 35.4621 11.7738 27.9458 13.6422 20.5951C15.5106 13.2444 23.1247 8.82789 30.6557 10.7421C38.1868 12.6564 42.7678 20.1727 40.8994 27.5234Z" stroke="black" stroke-opacity="0.67" stroke-width="0.4"/>
<path d="M69.6474 34.7083C67.779 42.059 60.1649 46.4755 52.6339 44.5613C45.1028 42.647 40.5218 35.1307 42.3902 27.7801C44.2586 20.4294 51.8727 16.0128 59.4038 17.9271C66.9348 19.8413 71.5158 27.3576 69.6474 34.7083Z" stroke="black" stroke-opacity="0.67" stroke-width="0.4"/>
<path d="M41.1438 26.9009L42.5778 27.275" stroke="black" stroke-opacity="0.67" stroke-width="0.5"/>
</svg>
