<svg width="150" height="134" viewBox="0 0 150 134" fill="none" xmlns="http://www.w3.org/2000/svg">
<rect x="0.797119" y="-0.00415039" width="148.596" height="133.428" fill="#00A0CB"/>
<ellipse cx="45.8809" cy="122.566" rx="41.3035" ry="7.41528" fill="#234C7E"/>
<rect x="1.37866" y="118.059" width="148.015" height="15.3652" fill="#234C7E"/>
<ellipse cx="102.139" cy="115.223" rx="30.9696" ry="7.34259" fill="#234C7E"/>
<ellipse cx="69.311" cy="110.571" rx="17.8733" ry="2.68985" fill="#234C7E"/>
<ellipse cx="35.2029" cy="105.845" rx="17.8733" ry="2.68985" fill="#234C7E"/>
<ellipse cx="61.0837" cy="107.881" rx="17.8733" ry="2.68985" fill="#234C7E"/>
<ellipse cx="61.0837" cy="102.501" rx="17.8733" ry="2.68985" fill="#234C7E"/>
<ellipse cx="45.8809" cy="100.611" rx="17.8733" ry="2.68985" fill="#234C7E"/>
<ellipse cx="59.8071" cy="95.2314" rx="11.3623" ry="2.68985" fill="#234C7E"/>
<ellipse cx="51.4377" cy="89.8517" rx="11.3623" ry="2.68985" fill="#234C7E"/>
<ellipse cx="28.2825" cy="81.0914" rx="17.5984" ry="6.07043" fill="#234C7E"/>
<ellipse cx="94.8745" cy="92.4686" rx="17.5984" ry="6.07043" fill="#234C7E"/>
<ellipse cx="82.7319" cy="100.611" rx="17.5984" ry="6.07043" fill="#234C7E"/>
<ellipse cx="121.989" cy="39.5349" rx="17.5984" ry="6.07043" fill="#234C7E"/>
<ellipse cx="140.815" cy="49.3828" rx="8.57849" ry="6.07043" fill="#234C7E"/>
<ellipse cx="12.4048" cy="113.951" rx="9.771" ry="6.07043" fill="#234C7E"/>
<ellipse cx="9.06335" cy="103.301" rx="8.26624" ry="6.07043" fill="#234C7E"/>
<ellipse cx="107.263" cy="82.3253" rx="42.1299" ry="8.76028" fill="#234C7E"/>
<ellipse cx="107.263" cy="27.9012" rx="42.1299" ry="8.76028" fill="#234C7E"/>
<ellipse cx="42.5261" cy="17.4646" rx="40.8567" ry="8.76028" fill="#234C7E"/>
<ellipse cx="71.1694" cy="9.33768" rx="42.1299" ry="8.76028" fill="#234C7E"/>
<ellipse cx="42.145" cy="24.5316" rx="41.3479" ry="8.76028" fill="#234C7E"/>
<path d="M80.1842 58.4799C80.1842 63.3181 61.322 67.2402 38.0543 67.2402C9.23019 74.1485 2.54175 63.3181 2.54175 58.4799C2.54175 53.6417 9.52099 44.1966 38.0543 49.7196C61.322 49.7196 80.1842 53.6417 80.1842 58.4799Z" fill="#234C7E"/>
<rect x="0.797119" y="43.9059" width="16.5325" height="23.0947" fill="#234C7E"/>
<ellipse cx="132.236" cy="99.1569" rx="17.1569" ry="6.68829" fill="#234C7E"/>
<ellipse cx="100.54" cy="108.462" rx="17.1569" ry="6.68829" fill="#234C7E"/>
<rect x="1.37866" y="0.286621" width="97.1255" height="8.41766" fill="#234C7E"/>
<rect x="117.406" y="8.71967" width="31.9875" height="10.4212" fill="#234C7E"/>
<ellipse cx="60.0465" cy="87.1244" rx="15.3395" ry="3.96118" fill="#007A82"/>
<ellipse cx="44.7072" cy="90.5795" rx="15.3395" ry="3.96118" fill="#007A82"/>
<ellipse cx="17.0089" cy="33.5276" rx="15.3395" ry="3.96118" fill="#007A82"/>
<ellipse cx="33.1476" cy="27.9743" rx="15.3395" ry="3.96118" fill="#007A82"/>
<ellipse cx="17.3297" cy="27.5065" rx="15.3395" ry="3.96118" fill="#007A82"/>
<ellipse cx="34.6019" cy="20.5704" rx="15.3395" ry="3.96118" fill="#007A82"/>
<ellipse cx="16.1366" cy="19.1409" rx="15.3395" ry="3.96118" fill="#007A82"/>
<ellipse cx="33.1476" cy="14.5292" rx="15.3395" ry="3.96118" fill="#007A82"/>
<ellipse cx="16.1366" cy="12.6808" rx="15.3395" ry="3.96118" fill="#007A82"/>
<ellipse cx="22.3973" cy="6.99951" rx="15.3395" ry="3.96118" fill="#007A82"/>
<ellipse cx="16.7181" cy="5.07782" rx="15.3395" ry="3.96118" fill="#007A82"/>
<ellipse cx="47.3971" cy="3.95703" rx="15.3395" ry="3.96118" fill="#007A82"/>
<ellipse cx="48.4869" cy="8.60205" rx="15.3395" ry="3.96118" fill="#007A82"/>
<ellipse cx="61.0836" cy="14.5292" rx="15.3395" ry="3.96118" fill="#007A82"/>
<ellipse cx="69.3112" cy="6.99951" rx="15.3395" ry="3.96118" fill="#007A82"/>
<ellipse cx="53.0763" cy="97.9212" rx="15.3395" ry="3.96118" fill="#007A82"/>
<ellipse cx="40.0753" cy="102.72" rx="15.3395" ry="3.96118" fill="#007A82"/>
<ellipse cx="26.0236" cy="108.535" rx="15.3395" ry="3.96118" fill="#007A82"/>
<ellipse cx="44.9276" cy="109.371" rx="15.3395" ry="3.96118" fill="#007A82"/>
<ellipse cx="32.6691" cy="116.06" rx="15.3395" ry="3.96118" fill="#007A82"/>
<ellipse cx="16.7181" cy="114.097" rx="15.3395" ry="3.96118" fill="#007A82"/>
<ellipse cx="19.9169" cy="121.513" rx="15.3395" ry="3.96118" fill="#007A82"/>
<ellipse cx="33.1053" cy="123.983" rx="15.3395" ry="3.96118" fill="#007A82"/>
<ellipse cx="59.8073" cy="123.983" rx="15.3395" ry="3.96118" fill="#007A82"/>
<ellipse cx="71.8448" cy="117.294" rx="15.3395" ry="3.96118" fill="#007A82"/>
<ellipse cx="58.5499" cy="114.532" rx="15.3395" ry="3.96118" fill="#007A82"/>
<ellipse cx="75.1466" cy="107.117" rx="15.3395" ry="3.96118" fill="#007A82"/>
<ellipse cx="84.9908" cy="101.882" rx="15.3395" ry="3.96118" fill="#007A82"/>
<ellipse cx="78.9572" cy="98.5018" rx="15.3395" ry="3.96118" fill="#007A82"/>
<ellipse cx="105.826" cy="96.4298" rx="15.3395" ry="3.96118" fill="#007A82"/>
<rect x="0.797119" y="0.286621" width="11.6077" height="33.0052" fill="#007A82"/>
<ellipse cx="126.356" cy="21.7986" rx="13.2312" ry="3.3082" fill="#00A0CB"/>
<ellipse cx="119.005" cy="9.25504" rx="13.2312" ry="3.3082" fill="#00A0CB"/>
<ellipse cx="92.1882" cy="21.4062" rx="13.2312" ry="3.3082" fill="#00A0CB"/>
<ellipse cx="130.543" cy="32.1345" rx="13.2312" ry="3.3082" fill="#00A0CB"/>
<ellipse cx="53.3066" cy="19.7939" rx="13.2312" ry="3.3082" fill="#00A0CB"/>
<ellipse cx="55.3762" cy="15.4185" rx="13.2312" ry="3.3082" fill="#00A0CB"/>
<ellipse cx="43.2742" cy="18.7267" rx="13.2312" ry="3.3082" fill="#00A0CB"/>
<ellipse cx="14.0283" cy="46.0746" rx="13.2312" ry="3.3082" fill="#00A0CB"/>
<ellipse cx="21.3708" cy="53.4071" rx="13.2312" ry="3.3082" fill="#00A0CB"/>
<ellipse cx="14.9006" cy="52.1451" rx="13.2312" ry="3.3082" fill="#00A0CB"/>
<ellipse cx="30.043" cy="83.3101" rx="13.2312" ry="3.3082" fill="#00A0CB"/>
<ellipse cx="105.774" cy="103.919" rx="13.2312" ry="3.3082" fill="#00A0CB"/>
<ellipse cx="92.5945" cy="108.462" rx="13.2312" ry="3.3082" fill="#00A0CB"/>
<ellipse cx="85.2729" cy="113.444" rx="13.2312" ry="3.3082" fill="#00A0CB"/>
<ellipse cx="111.735" cy="17.2622" rx="13.2312" ry="3.3082" fill="#00A0CB"/>
<path d="M143.575 63.9707C139.353 92.8038 51.9241 80.6637 37.9582 74.1486C33.028 72.9697 32.6956 71.9386 37.9582 69.2051C43.5027 66.6403 46.964 65.1759 57.6147 62.226C51.3901 56.9152 46.4992 54.8876 36.198 52.3389C27.5088 49.6225 26.6852 47.5559 37.9582 42.1611C83.7382 24.2884 147.798 35.1376 143.575 63.9707Z" fill="#99E2DE" stroke="#99E2DE" stroke-width="2"/>
<path d="M34.2374 91.5963C34.1864 96.0898 21.7334 99.6503 1.37866 105.845V65.1339C13.1823 65.1901 17.9416 67.7528 23.3823 76.4749C16.8302 78.8907 16.1595 81.0855 19.8617 86.362C33.7021 85.8418 32.004 88.4983 34.2374 91.5963Z" fill="#99E2DE" stroke="#99E2DE" stroke-width="2"/>
<ellipse cx="26.2771" cy="121.447" rx="11.4597" ry="2.53577" fill="#234C7E"/>
<ellipse cx="19.5994" cy="124.048" rx="11.4597" ry="2.53577" fill="#234C7E"/>
<ellipse cx="36.1956" cy="128.678" rx="11.4597" ry="2.53577" fill="#234C7E"/>
<path d="M97.0756 61.4065C88.0019 66.0264 83.988 65.8514 77.3015 64.3145C95.2846 65.7461 93.5861 30.7278 97.0756 32.0362C100.565 33.3447 101.208 48.5063 97.0756 61.4065Z" fill="#EE99BB"/>
<path d="M62.4165 20.8327C60.3258 23.4665 57.9863 28.2164 57.9863 28.2164H60.1343L62.4165 32.1096C61.3019 29.5612 65.4314 17.0345 62.4165 20.8327Z" fill="#FF529D" stroke="#FF529D" stroke-width="2"/>
<path d="M71.6799 37.4795L67.9211 20.2957C66.987 17.2211 67.5412 16.6627 70.0689 17.3422C72.5967 18.0217 76.5129 30.9013 76.5129 30.9013L74.0964 36.1371L71.6799 37.4795Z" fill="#FF529D" stroke="#FF529D" stroke-width="2"/>
<path d="M89.2664 31.9753L81.7485 41.507C81.766 37.4362 82.0377 35.0688 84.8362 30.0959C87.6346 25.1229 89.2664 31.9753 89.2664 31.9753Z" fill="#FF529D" stroke="#FF529D" stroke-width="2"/>
<path d="M50.8506 43.0477L50.9845 43.3771L53.0201 37.9974C53.0201 37.9974 55.6088 33.226 56.2188 35.0895C56.8289 36.9529 60.4253 49.3548 60.8716 48.3207C60.8716 48.3207 63.2498 45.8098 65.2335 45.7035C67.4148 45.5866 67.9975 48.4678 70.177 48.3207C72.901 48.1368 72.4845 44.088 75.1205 43.3771C77.5942 42.71 79.4576 43.3083 81.518 44.8311C86.6457 48.6209 71.1948 57.4807 71.1948 57.4807L82.972 54.5727C86.0523 50.8087 87.8957 49.6294 90.0965 38.8698L92.2774 36.8343C92.2774 36.8343 96.3842 32.2433 94.313 31.0184C93.2378 30.3825 91.1142 31.0184 91.1142 31.0184L79.9186 38.8698C79.9186 38.8698 83.6189 29.603 81.518 30.0005L76.1383 31.0184C72.8639 30.9038 71.038 29.8755 67.8506 19.6773C65.5319 18.7619 64.4833 19.369 64.0703 22.1491L61.7439 32.3269C61.7439 32.3269 61.5673 29.3092 60.1446 28.692C59.3111 28.3304 57.8182 28.692 57.8182 28.692C57.8182 28.692 56.6195 25.695 55.0557 25.784C54.1416 25.8361 53.0201 26.9472 53.0201 26.9472C51.3892 28.2289 50.3365 28.7273 46.041 25.784C43.9122 25.7823 43.5129 26.516 45.1686 30.0005C46.5837 32.5518 48.1428 36.3871 50.8506 43.0477Z" fill="#EE99BB"/>
<path d="M80.9111 64.9885L71.4602 62.5167L68.2615 54.9561L74.3682 39.9801L85.5638 33.1465L88.1809 44.9237L90.2165 62.5167L80.9111 64.9885Z" fill="#EE99BB"/>
<path d="M56.9458 35.8164C52.7645 37.5779 58.6907 47.3028 58.6907 47.3028L70.6133 57.1898L82.3905 54.2819C82.3905 54.2819 86.5714 51.884 85.5892 50.0654C84.9372 48.858 83.5641 49.3225 82.3905 48.6114C80.5676 47.5069 82.3905 47.3028 82.3905 47.3028C82.3905 47.3028 82.9034 46.9144 83.5537 44.9764C84.1209 43.2861 82.2055 42.4272 80.7911 41.3415C78.0256 39.2186 71.9219 40.3237 71.9219 40.3237C71.9219 40.3237 73.7879 39.721 73.9574 38.7243C74.2001 37.2972 72.0499 37.3038 70.6133 37.125C67.9915 36.7986 67.1439 41.2017 64.652 40.3237C62.6467 39.6172 61.5987 35.8164 61.5987 35.8164C61.5987 35.8164 58.6203 35.111 56.9458 35.8164Z" fill="#FFD1E4"/>
<path d="M46.0381 22.7122C48.2409 23.1401 50.6025 26.2027 50.6025 26.2027L46.0381 33.7206C48.7894 33.6846 50.5031 47.6389 51.4082 44.729C52.2658 41.9715 53.4219 37.6139 53.4219 37.6139C53.4219 37.6139 55.5872 35.6058 56.1069 35.1974C56.6266 34.7889 56.7325 50.7849 61.7454 49.1593C63.4512 48.6061 64.0153 47.515 65.3701 46.34C66.6418 45.2372 68.6435 58.4681 71.1428 58.154C76.1518 57.7232 78.7721 56.8819 83.2252 54.6635C87.1211 49.3596 89.5845 46.5092 90.2062 39.7618C91.8887 36.9254 92.9581 35.8288 96.1131 38.8221C96.4423 41.6695 96.6935 43.0923 95.3076 50.3675C90.8056 60.1731 85.979 62.3596 75.8415 64.0609C75.8415 64.0609 79.9064 71.6726 78.5265 76.4118C77.127 81.218 64.8111 62.4611 63.2221 64.0609C62.9696 61.8996 54.7775 71.0773 51.4082 69.5651C46.5656 67.3918 58.7919 58.154 58.7919 58.154C57.6988 55.8929 40.6843 52.1444 46.0381 50.3675C47.8872 49.7538 50.6025 48.3538 50.6025 48.3538C46.1087 43.1698 44.0844 40.2793 42.8162 35.1974C42.8162 35.1974 41.095 21.7519 46.0381 22.7122Z" fill="#FF529D" stroke="#FF529D"/>
<path d="M69.6318 61.1228C69.6318 62.7167 72.504 66.248 70.7949 66.248C69.0859 66.248 65.855 63.6183 65.855 62.0244C65.855 60.4304 65.6041 58.9202 67.3132 58.9202C69.0222 58.9202 69.6318 59.5289 69.6318 61.1228Z" fill="#EC1646"/>
<path d="M62.463 58.3161C61.6892 59.1622 58.4499 59.6423 59.3571 60.4721C60.2644 61.3019 63.2563 61.4746 64.0302 60.6284C64.8041 59.7823 65.6705 59.1024 64.7632 58.2726C63.856 57.4428 63.2369 57.47 62.463 58.3161Z" fill="#EC1646"/>
<path d="M74.0772 62.8018C69.6574 62.3138 70.3327 61.459 68.7221 61.3089C68.6696 62.5379 69.0332 63.2548 73.3936 64.7923C75.028 64.9431 75.8556 65.0909 79.7742 63.598C82.9576 60.8834 83.6925 59.8657 83.1924 58.9202C79.6285 61.6719 76.4458 63.4886 74.0772 62.8018Z" fill="#EC1646"/>
<path d="M67.9149 59.5238C67.7592 60.0639 66.7417 60.2448 65.6422 59.9278C64.5427 59.6107 63.7776 58.9158 63.9333 58.3758C64.0891 57.8358 64.5427 58.0588 65.6422 58.3758C66.7417 58.6928 68.0707 58.9838 67.9149 59.5238Z" fill="#EC1646"/>
<path d="M0.506348 83.3086V69.4959C0.506348 69.4959 4.58884 69.6225 6.32214 71.2406C7.34726 72.1976 8.21231 74.294 8.21231 74.294C10.5095 75.1288 11.7388 75.4602 11.8472 71.2406C11.8472 71.2406 18.5185 66.6312 20.2803 69.4959C21.2619 71.0919 20.2803 74.294 20.2803 74.294C20.2803 74.294 24.1572 72.1708 26.387 73.1308C28.9526 74.2353 29.5857 79.5283 29.5857 79.5283L32.2029 82.4362C25.4494 98.6321 16.6325 99.5239 0.506348 100.466V83.3086Z" fill="#EE99BB"/>
<path d="M0.651611 96.1036V82.5816C2.52311 83.3108 4.35131 82.5346 9.52089 78.2197C9.52089 78.2197 10.7195 79.3857 11.7019 79.6736C12.6282 79.9451 13.3118 79.2388 14.1736 79.6736C15.5526 80.3694 14.2588 82.3477 15.3368 83.454C16.2422 84.3831 18.3901 84.7625 18.3901 84.7625C16.9534 91.5556 14.5099 93.9746 7.63072 96.1036C7.63072 96.1036 9.49781 101.03 7.63072 102.937C4.96201 105.663 0.651611 96.1036 0.651611 96.1036Z" fill="#FFD1E4"/>
</svg>
