<svg height="70" viewBox="0 0 107 129" fill="none" xmlns="http://www.w3.org/2000/svg">
<path d="M56.3073 28.4878C49.1915 26.7547 31.3164 31.1688 22.6791 33.79L20.2488 38.9366L7.34143 28.4878L12.8731 17.4244L23.1072 30.748L26.3951 7.38539C32.1317 3.28782 44.0146 0.21463 51.3902 3.28781L56.3073 28.4878Z" fill="white"/>
<path d="M56.3073 28.4878C49.1915 26.7547 31.3164 31.1688 22.6791 33.79L20.2488 38.9366L7.34143 28.4878L12.8731 17.4244L23.1072 30.748L26.3951 7.38539C32.1317 3.28782 44.0146 0.21463 51.3902 3.28781L56.3073 28.4878Z" fill="white"/>
<path d="M56.3073 28.4878C49.1915 26.7547 31.3164 31.1688 22.6791 33.79L20.2488 38.9366L7.34143 28.4878L12.8731 17.4244L23.1072 30.748L26.3951 7.38539C32.1317 3.28782 44.0146 0.21463 51.3902 3.28781L56.3073 28.4878Z" stroke="white" stroke-linecap="round"/>
<path d="M16.9706 87.6976L13.2828 92C21.9148 93.2965 28.2895 95.1193 41.3512 99.5805H48.9317C34.4099 92.8181 26.7358 89.5144 16.9706 87.6976Z" fill="white"/>
<path d="M16.9706 87.6976L13.2828 92C21.9148 93.2965 28.2895 95.1193 41.3512 99.5805H48.9317C34.4099 92.8181 26.7358 89.5144 16.9706 87.6976Z" fill="white"/>
<path d="M16.9706 87.6976L13.2828 92C21.9148 93.2965 28.2895 95.1193 41.3512 99.5805H48.9317C34.4099 92.8181 26.7358 89.5144 16.9706 87.6976Z" stroke="white" stroke-linecap="round"/>
<path d="M69.2146 110.439L61.0195 104.702L66.3463 114.946L72.2878 119.249C72.5537 116.399 72.2057 114.601 69.2146 110.439Z" fill="white"/>
<path d="M69.2146 110.439L61.0195 104.702L66.3463 114.946L72.2878 119.249C72.5537 116.399 72.2057 114.601 69.2146 110.439Z" fill="white"/>
<path d="M69.2146 110.439L61.0195 104.702L66.3463 114.946L72.2878 119.249C72.5537 116.399 72.2057 114.601 69.2146 110.439Z" stroke="white" stroke-linecap="round"/>
<path d="M27.0098 28.6927C22.5459 31.2019 21.4361 34.115 20.2488 40.1658L25.3707 46.9268C25.7286 41.7844 25.7062 38.9281 36.0244 32.5854L27.0098 28.6927Z" fill="white"/>
<path d="M27.0098 28.6927C22.5459 31.2019 21.4361 34.115 20.2488 40.1658L25.3707 46.9268C25.7286 41.7844 25.7062 38.9281 36.0244 32.5854L27.0098 28.6927Z" fill="white"/>
<path d="M27.0098 28.6927C22.5459 31.2019 21.4361 34.115 20.2488 40.1658L25.3707 46.9268C25.7286 41.7844 25.7062 38.9281 36.0244 32.5854L27.0098 28.6927Z" stroke="white" stroke-linecap="round"/>
<path d="M93.3902 20.7024L49.3414 40.5756V38.9366L90.1122 16.6049L93.3902 20.7024Z" fill="white"/>
<path d="M93.3902 20.7024L49.3414 40.5756V38.9366L90.1122 16.6049L93.3902 20.7024Z" fill="white"/>
<path d="M49.3414 66.1854C42.4324 66.3381 39.1376 65.9379 34.7951 63.9317C37.6852 70.155 34.3428 74.6362 30.6975 82.1658L36.2292 84.8293L42.5804 80.5268L39.5073 75.2L34.7951 73.7659L36.2292 71.1024C39.9197 72.1719 43.2872 71.0574 49.2368 69.0883L49.3414 69.0537V66.1854Z" fill="white"/>
<path d="M49.3414 66.1854C42.4324 66.3381 39.1376 65.9379 34.7951 63.9317C37.6852 70.155 34.3428 74.6362 30.6975 82.1658L36.2292 84.8293L42.5804 80.5268L39.5073 75.2L34.7951 73.7659L36.2292 71.1024C39.9197 72.1719 43.2872 71.0574 49.2368 69.0883L49.3414 69.0537V66.1854Z" fill="white"/>
<path d="M93.3902 20.7024L49.3414 40.5756V38.9366L90.1122 16.6049L93.3902 20.7024Z" stroke="white" stroke-linecap="round"/>
<path d="M49.3414 66.1854C42.4324 66.3381 39.1376 65.9379 34.7951 63.9317C37.6852 70.155 34.3428 74.6362 30.6975 82.1658L36.2292 84.8293L42.5804 80.5268L39.5073 75.2L34.7951 73.7659L36.2292 71.1024C39.9197 72.1719 43.2872 71.0574 49.2368 69.0883L49.3414 69.0537V66.1854Z" stroke="white" stroke-linecap="round"/>
<path d="M13.8976 59.2195V56.5561C17.516 59.8416 20.403 61.68 26.6 64.9561C20.5421 64.1738 17.833 62.8235 13.8976 59.2195Z" fill="white"/>
<path d="M13.8976 59.2195V56.5561C17.516 59.8416 20.403 61.68 26.6 64.9561C20.5421 64.1738 17.833 62.8235 13.8976 59.2195Z" fill="white"/>
<path d="M13.8976 59.2195V56.5561C17.516 59.8416 20.403 61.68 26.6 64.9561C20.5421 64.1738 17.833 62.8235 13.8976 59.2195Z" stroke="white" stroke-linecap="round"/>
<path d="M34.1806 69.2585L28.0342 82.7805H25.5757C28.8576 78.264 30.3769 75.4769 31.5171 69.2585H34.1806Z" fill="white"/>
<path d="M34.1806 69.2585L28.0342 82.7805H25.5757C28.8576 78.264 30.3769 75.4769 31.5171 69.2585H34.1806Z" fill="white"/>
<path d="M34.1806 69.2585L28.0342 82.7805H25.5757C28.8576 78.264 30.3769 75.4769 31.5171 69.2585H34.1806Z" stroke="white" stroke-linecap="round"/>
<path d="M55.6927 61.0634H33.5659L43.4 65.7756H49.7512V69.0537C43.3632 71.3295 41.9868 73.1736 36.639 72.9463C40.9771 77.0383 40.8328 77.6737 42.3756 80.9366L36.639 84.8293L45.039 88.9268L39.5073 89.9512C39.5073 89.9512 64.7073 100.4 59.9951 98.3512C55.2829 96.3024 48.522 91.5902 48.522 91.5902L59.9951 94.4585C59.9951 94.4585 59.1686 88.2715 57.3317 84.8293C55.6726 81.7202 51.5951 77.8634 51.5951 77.8634L65.9366 75.4049L93.8 64.1366C95.822 57.874 95.6227 55.6958 93.8 53.2781L65.9366 64.1366L55.6927 61.0634Z" fill="#535356" stroke="#535356"/>
<path d="M18.4049 77.4537L32.3366 69.6683L26.3951 85.239L16.7659 83.1902L18.4049 77.4537Z" fill="#535356" stroke="#535356"/>
<path d="M20.2488 66.8C15.065 62.9093 14.0287 61.9417 13.4878 61.0634C4.8429 49.0066 2.99853 41.4339 6.72683 26.0292L20.2488 37.7073C19.4165 47.7048 20.7925 52.9021 28.239 61.0634L35 68.6439L20.2488 66.8Z" fill="#535356" stroke="#535356"/>
<path d="M1.60486 94.0488L16.561 83.3951C38.2802 86.9947 52.2401 92.6058 65.9366 102.039L77.6146 126.215C42.9785 102.695 25.6019 94.0296 1.60486 94.0488Z" fill="#535356" stroke="#535356"/>
<path d="M6.31714 28.4878C7.5088 18.9474 14.2376 10.4572 30.7304 4.04793C30.8634 3.93731 30.9898 3.8861 31.1073 3.90246C30.9811 3.95083 30.8555 3.99932 30.7304 4.04793C28.8422 5.61786 25.6051 19.1534 27.0098 21.3171C28.5134 23.6332 36.4342 23.7756 36.4342 23.7756C27.0098 25.2098 22.5299 29.8453 20.6586 37.7073V31.561C18.2308 28.6916 16.9899 27.0638 13.2829 21.3171C9.26847 19.6856 8.16326 22.6926 6.31714 28.4878Z" fill="#535356" stroke="#535356"/>
<path d="M32.1317 32.5854L28.239 29.5122C36.2062 23.1123 46.2289 23.915 56.1024 29.5122L81.5073 8.61462L88.8829 14.5561L51.8 35.2488C45.8779 31.6404 41.9832 30.4561 32.1317 32.5854Z" fill="#535356" stroke="#535356"/>
<path d="M27.8293 45.0829L21.0684 38.9366C18.8287 42.6563 18.8373 45.922 26.1903 58.6049L47.0879 66.1854C34.3253 58.3354 26.7082 53.9688 27.8293 45.0829Z" fill="#535356" stroke="#535356"/>
<path d="M40.3268 54.9171L33.5659 52.8683C43.6689 52.076 48.4012 50.8319 49.1366 42.0098L51.3903 44.6732L49.1366 52.8683L45.4488 58.6049C42.5133 56.3699 40.1703 57.2086 36.0244 58.6049L40.3268 54.9171Z" fill="#535356" stroke="#535356"/>
<path d="M81.5073 8.5122C61.1437 -1.47128 50.045 -1.12004 30.4927 4.10729C44.156 0.643759 51.2727 -0.934034 48.4195 6.66828L41.761 23.161C47.7776 23.2436 52.7138 25.5066 56.2049 28.7951L81.5073 8.5122Z" fill="#535356" stroke="#535356"/>
<path d="M35.8196 37.7074L32.1317 35.8635C39.6292 30.824 44.4449 30.0807 51.3903 34.4294L91.5463 13.9414C100.028 25.0321 103.096 31.3134 105.683 42.6244L95.439 46.9269L49.5463 48.361L46.2683 41.8049C37.9523 42.1629 34.0476 42.7935 29.8781 45.4927C31.7003 40.7535 32.8953 38.6931 35.8196 37.7074Z" fill="#636367" stroke="#636367"/>
<path d="M46.0635 57.7854C49.3711 54.9977 49.5365 52.1204 49.7512 46.9269L52.8244 51.0244L92.7756 52.4585L94.2097 55.5317L63.2732 65.161L35.8196 61.2683L28.6488 56.761L32.3366 55.5317C24.555 48.0602 23.2478 41.0618 32.3366 32.3805H38.6878C32.0209 41.0884 29.6521 49.2994 39.9171 55.5317L35.8196 57.7854H46.0635Z" fill="#3C3C3E" stroke="#3C3C3E"/>
<path d="M15.9463 84.0098C38.8312 89.2379 48.9672 93.639 66.5867 103.268C72.5717 107.251 73.9268 115.278 78.4696 126.01C64.9639 115.97 55.8536 110.17 40.3268 103.268" stroke="#3C3C3E" stroke-width="1.5" stroke-linecap="round"/>
<path d="M51.8001 78.0683C61.4573 77.1456 79.7279 69.131 93.8 64.5463C86.3853 69.5356 70.3798 78.5412 61.0195 82.7805L66.5512 102.244L57.7415 97.7366V96.0976L48.522 91.7951L59.3805 93.4341L57.7415 85.8537L51.8001 78.0683Z" fill="#3C3C3E" stroke="#3C3C3E" stroke-linecap="round"/>
<path d="M94.8243 22.5463L91.1366 24.3903C95.1322 30.8698 96.0508 33.7801 96.8732 38.5268H101.176C100.118 31.2866 98.4603 27.975 94.8243 22.5463Z" fill="#3C3C3E" stroke="#3C3C3E" stroke-linecap="round"/>
<path d="M87.6537 27.0536L79.2537 30.9464C82.3498 35.4593 83.5762 38.1827 84.7854 43.4439L92.9805 41.1902C92.0484 33.7139 90.6824 30.9587 87.6537 27.0536Z" fill="#3C3C3E" stroke="#3C3C3E" stroke-linecap="round"/>
<path d="M74.0804 32.3293L62.9658 38.7829C64.2158 41.7515 64.7057 43.2877 65.3732 45.9024L79.4073 44.4683C77.8496 39.7862 76.7718 37.1372 74.0804 32.3293Z" fill="#3C3C3E" stroke="#3C3C3E" stroke-linecap="round"/>
<path d="M50.1558 46.6867C50.0531 46.5037 49.9883 46.3102 49.9561 46.1073L50.1558 46.6867C51.7781 49.5746 62.8685 49.8477 104.863 43.4439L106.093 47.9512L52.0049 52.0488L50.1558 46.6867Z" fill="#3C3C3E"/>
<path d="M49.9561 46.1073C50.4969 49.5132 60.2078 50.2535 104.863 43.4439L106.093 47.9512L52.0049 52.0488L49.9561 46.1073Z" stroke="#3C3C3E" stroke-linecap="round"/>
<path d="M36.0244 68.7403C27.5725 68.7204 23.7943 68.2827 20.0217 66.1854L22.8458 68.7403L18.6097 77.0439L36.0244 68.7403Z" fill="#3C3C3E" stroke="#3C3C3E" stroke-linecap="round"/>
<path d="M41.7609 42.4195C33.8877 43.1626 31.5473 44.1982 31.7219 47.3366L36.2292 52.8683C40.4861 51.9684 42.7279 51.2931 45.4487 48.5659L50.3658 47.3366L45.4487 42.4195H41.7609Z" fill="#3C3C3E" stroke="#3C3C3E" stroke-linecap="round"/>
<path d="M17.7903 95.2781C21.0177 89.4023 23.2866 86.5622 30.0829 84.2147L36.639 67.2098" stroke="#3C3C3E" stroke-linecap="round"/>
<path d="M55.283 29.5122C65.1785 19.3131 71.0812 12.3699 81.5073 9.63904" stroke="#3C3C3E" stroke-linecap="round"/>
<path d="M36.4342 67.6195C5.49752 52.8683 21.8878 11.483 55.4878 29.922" stroke="#3C3C3E" stroke-linecap="round"/>
<path d="M91.1366 15.7853L53.6439 34.2243L87.8585 13.5317L91.1366 15.7853Z" fill="#3C3C3E" stroke="#3C3C3E" stroke-linecap="round"/>
<ellipse cx="38.066" cy="47.5424" rx="3.61297" ry="1.12683" transform="rotate(-12.0588 38.066 47.5424)" fill="white"/>
<ellipse cx="38.066" cy="47.5424" rx="3.61297" ry="1.12683" transform="rotate(-12.0588 38.066 47.5424)" fill="white"/>
<path d="M63.0684 37.2975L60.4049 39.1415L63.0684 43.6488" stroke="white" stroke-width="0.8" stroke-linecap="round"/>
<path d="M79.6635 29.717L83.1463 35.8634L84.3756 42.2147" stroke="white" stroke-width="0.8" stroke-linecap="round"/>
<path d="M91.9561 25.2098L96.6683 35.8634" stroke="white" stroke-width="0.8" stroke-linecap="round"/>
</svg>
