<svg viewBox="0 0 123 142" fill="none" xmlns="http://www.w3.org/2000/svg">
<rect x="1.59399" y="1.21027" width="119.949" height="139.663" fill="#855838" stroke="black" stroke-width="0.5"/>
<rect x="9.14795" y="9.62775" width="103.786" height="122.506" fill="#E3917C" stroke="black" stroke-width="0.5"/>
<path d="M12.4703 129.456V80.3117H110.436V129.456H12.4703Z" fill="#142341"/>
<path d="M110.436 87.5816L14.8167 103.866H12.2168V79.4393L110.436 54.7218V87.5816Z" fill="#E2AD87"/>
<path d="M12.3259 82.2019V12.1203H110.545V56.4665L12.3259 82.2019Z" fill="#88C4B2"/>
<path fill-rule="evenodd" clip-rule="evenodd" d="M50.9471 119.933L65.4869 127.639C87.044 122.534 95.5576 119.337 101.182 112.735C103.236 110.497 103.753 109.065 103.218 106.12L89.4775 89.3264H83.3708V98.8076C76.3603 99.1302 71.9247 101.92 67.5642 104.662C66.5392 105.307 65.5183 105.949 64.4691 106.556L61.6676 109.357L57.7081 108.81L50.9471 119.933ZM72.8339 111.663L75.8828 112.735C77.2649 111.327 76.5882 110.44 74.6469 108.81C77.0239 109.15 78.6245 109.994 81.626 111.863C81.8231 109.208 80.5042 107.648 77.046 104.811C78.9537 105.245 80.7349 106.059 87.5146 110.409C87.2596 108.922 86.6914 107.914 84.2432 105.538C85.5434 104.989 86.8222 105.125 90.1318 106.12C89.2595 104.944 88.5282 104.033 87.6855 103.33L80.9159 102.558L82.2774 104.739L73.6548 103.575L76.6803 107.501H70.3269L72.8339 111.663Z" fill="#E2AD87"/>
<path d="M44.6223 116.807C41.1495 111.591 41.4856 109.501 46.6579 104.884L38.661 100.013C32.8094 98.6168 31.1616 96.9707 29.4283 93.3975C14.4761 100.847 16.5019 106.474 22.231 116.807C28.0676 119.409 31.9359 119.328 39.5333 117.388C42.1239 117.976 42.8775 118.565 43.1684 120.005L52.6919 119.424L49.2024 117.388L44.6223 116.807Z" fill="#E2AD87"/>
<path d="M42.1506 83.3651L42.4777 74.4231L40.4422 72.6784L38.5156 73.0419L34.0083 84.6737L37.6433 89.3264L42.1506 83.3651Z" fill="#E2AD87"/>
<path d="M68.9037 107.356L73.2656 102.703L88.0962 101.249L93.4248 109.31L77.1808 120.005L68.9037 107.356Z" fill="#E2AD87"/>
<path d="M44.6223 117.388C40.8487 111.135 41.7099 108.521 46.6579 104.884C52.4782 106.644 55.075 106.299 59.3074 104.884C63.5447 104.632 64.6968 104.92 65.4141 105.902L60.9068 110.554L67.8859 118.842L62.797 122.913C55.3135 120.865 52.3454 119.651 48.9842 117.388H44.6223Z" fill="#FAD4B8"/>
<path d="M43.8954 126.548V119.86C44.5573 118.643 45.9961 118.417 49.1297 118.26C57.428 122.253 60.7705 124.057 64.5418 126.548H43.8954Z" fill="#FAD4B8"/>
<path fill-rule="evenodd" clip-rule="evenodd" d="M43.5957 47.8236C41.4265 42.3742 42.7875 34.5632 43.8953 31.6036C51.517 23.8901 57.8256 23.7163 68.2857 25.4241C73.5294 35.1653 73.4095 41.3851 72.0661 52.7589L70.3577 52.6948V53.3257L71.0847 53.1224C70.9428 54.7123 71.0138 56.1346 71.0847 57.557V57.557C71.1557 58.9794 71.2267 60.4018 71.0847 61.9916L70.9229 62.2894C67.4223 68.7304 65.4103 72.4325 66.8682 76.8222C65.4876 76.8581 64.2537 76.7955 63.0009 76.7318C59.5179 76.555 55.8879 76.3707 48.5481 78.2762C46.9013 76.8469 44.9234 75.8063 43.3269 74.9664C42.006 74.2715 40.9463 73.7139 40.5513 73.1873C39.8056 72.1929 43.7345 70.2424 44.891 69.6971L52.9165 64.6335C53.7142 63.574 53.5561 61.1127 52.3443 57.2761C47.7313 55.7503 44.3068 52.1621 43.5957 47.8236Z" fill="#FAD4B8"/>
<path d="M68.1768 26.3693C54.4044 24.8614 49.1811 26.8401 43.6046 32.5487C43.9779 47.5283 44.6281 51.9431 47.8211 54.8672L54.0732 57.9205C54.9871 60.9112 55.1137 62.3547 54.0732 64.1726L34.8807 76.5314C36.8988 72.4 37.883 70.0013 38.6611 65.1904C39.5168 63.9871 39.3266 58.5212 37.6433 39.455C38.2297 31.405 38.8822 27.5861 41.7144 24.3337C50.8686 13.8368 56.8668 13.0703 68.1768 15.319C79.6501 20.7035 83.2706 29.981 84.7521 40.7636C85.4254 48.9893 83.6409 53.8816 81.8441 62.4278C82.598 66.5867 83.8294 67.0081 86.4968 66.6444L68.1768 79.7301C61.6339 75.0774 79.3724 43.9624 68.1768 26.3693Z" fill="#0C1D36"/>
<path d="M77.046 99.5042L65.705 106.047L64.978 103.575C72.5495 95.0093 76.6301 90.1038 89.6956 84.9644L91.0042 81.6203L99.728 93.1067L92.8943 79.2939L89.6956 76.6768L88.8232 72.6057L83.2981 75.2228L87.9508 70.1339L87.0784 67.5167L91.7312 68.8253C94.0703 72.1199 95.4249 74.7333 97.9833 81.6203C97.9833 81.6203 101.947 84.5581 104.09 86.8546C114.523 98.035 107.87 125.385 107.87 125.385H75.3012C91.0605 119.81 103.869 117.124 102.636 106.047L98.8556 110.7L95.2207 103.575L96.8201 101.394L95.2207 99.5042V97.7594L84.4613 90.0534L88.8232 95.4331H83.2981V99.5042H77.046Z" fill="#0C1F3A"/>
<path d="M16.5608 103.43C21.7393 95.8841 23.5329 91.8623 32.9908 83.5105C33.6788 79.9639 34.051 78.3213 34.65 77.1286L34.8809 76.2406L38.6612 73.9142L35.6078 84.3829L36.9164 87.8724L40.2606 83.5105C40.9998 80.8739 41.4073 78.2707 40.5876 73.2963L43.4593 75.0047C44.5688 78.582 44.3402 80.8055 43.4593 84.3829L40.2606 86.273C39.0333 90.3377 39.1078 92.5219 39.388 100.34C33.6202 98.2264 30.6744 96.9131 29.5011 93.3975C20.7315 97.7207 19.9875 100.137 17.8693 104.448C19.8208 115.466 21.2668 118.179 22.8129 117.388C30.0103 119.741 33.7601 120.137 39.3882 117.388C41.9373 117.39 42.558 118.203 43.4593 119.86C44.6532 123.998 45.1432 125.99 44.4771 126.694H17.8693C15.3932 111.518 14.7737 105.391 16.5608 103.43Z" fill="#0C1F3A"/>
<path d="M63.3059 122.404V123.495L68.6856 121.314L61.7793 115.571L66.432 120.151L65.1234 121.314L59.5256 117.025L63.3059 122.404Z" fill="#E2AD87"/>
<path d="M39.6062 92.9613L41.569 99.8677L72.6841 95.4331L75.2285 90.0533L90.4226 82.0565L95.2207 89.4718L92.0219 80.3117H87.66L76.5371 86.8546L79.6632 81.4749L63.4513 85.4006L75.2285 77.2584L80.172 76.0952L89.0413 68.171L86.1333 66.717L53.2735 90.0533L54.5821 82.0565L47.0941 86.3457L44.4043 85.4006L39.6062 92.9613Z" fill="#0C1F3A"/>
<path d="M61.5613 56.9754C59.8413 57.8288 58.6655 58.2214 54.0732 57.9205C54.0732 57.9205 55.1638 58.7929 55.2365 59.5199C55.3092 60.2469 57.5628 60.7558 57.5628 60.7558C61.291 59.8711 62.9547 59.2105 65.6324 57.9205H63.5241L61.5613 56.9754Z" fill="#E2AD87"/>
<path d="M52.8925 39.7119C52.6922 40.4271 51.0437 40.713 49.7485 40.3503C48.4532 39.9877 47.5656 39.1138 47.7658 38.3985C47.9661 37.6833 49.6146 37.3974 50.9098 37.7601C52.2051 38.1227 53.0928 38.9966 52.8925 39.7119Z" fill="#0C1D36"/>
<path d="M59.0091 39.7119C59.2094 40.4271 60.8579 40.713 62.1531 40.3503C63.4484 39.9877 64.336 39.1138 64.1358 38.3985C63.9355 37.6833 62.287 37.3974 60.9918 37.7601C59.6965 38.1227 58.8089 38.9966 59.0091 39.7119Z" fill="#0C1D36"/>
<path d="M58.8644 49.7336C58.2895 50.3956 57.3623 50.796 55.7782 50.796C54.1941 50.796 52.7645 50.027 52.7645 49.7336C52.7645 49.4402 54.1941 50.0173 55.7782 50.0173C57.3623 50.0173 58.8644 49.7336 58.8644 49.7336Z" fill="#0C1D36"/>
<path d="M41.7872 31.3127C41.502 32.4784 41.4917 32.9821 41.7872 33.5664" stroke="#E3917C" stroke-width="0.5"/>
<path d="M40.6757 31.4396C40.3905 32.6052 40.3802 33.109 40.6757 33.6932" stroke="#E3917C" stroke-width="0.5"/>
<path d="M74.3594 38.4517L74.789 41.6215" stroke="#E3917C" stroke-width="0.5"/>
<path d="M76.6172 39.7579L76.8935 41.3332" stroke="#E3917C" stroke-width="0.5"/>
<path d="M71.2301 112.881C71.6319 111.145 70.801 109.791 68.0314 106.92C70.69 107.171 72.8409 108.892 77.4822 113.899C77.1001 109.526 76.914 107.045 74.7196 104.593L78.5 106.92C79.3358 105.992 79.767 105.428 78.5 101.976" stroke="#FFC3B0"/>
<path d="M52.183 44.8347C52.4961 46.3344 52.8568 46.2519 53.4916 46.1433" stroke="#E2AD87"/>
<g style="mix-blend-mode:multiply">
<rect x="11.908" y="11.6841" width="98.6371" height="117.772" fill="#F5D9A3" fill-opacity="0.1"/>
</g>
<path d="M9.32715 9.72125L1.83911 1.46991" stroke="black" stroke-width="0.4"/>
<path d="M112.909 9.68646L121.501 1.39722" stroke="black" stroke-width="0.4"/>
<path d="M121.574 140.797L112.814 132.037" stroke="black" stroke-width="0.4"/>
<path d="M1.62109 140.87L9.18176 132.11" stroke="black" stroke-width="0.4"/>
</svg>
