<svg width="115" height="160" viewBox="0 0 115 160" fill="none" xmlns="http://www.w3.org/2000/svg">
<path fill-rule="evenodd" clip-rule="evenodd" d="M74.0209 101.759H40.4341C39.4303 101.759 38.6166 102.573 38.6166 103.577C38.6166 104.581 39.4303 105.394 40.4341 105.394H74.0209C75.0246 105.394 75.8383 104.581 75.8383 103.577C75.8383 102.573 75.0246 101.759 74.0209 101.759Z" fill="#F4C23F"/>
<path fill-rule="evenodd" clip-rule="evenodd" d="M42.9596 108.811H42.9596C42.1898 108.811 41.5515 107.724 41.4346 106.301H73.0203C72.9033 107.724 72.2651 108.811 71.4953 108.811H71.4953H42.9596ZM73.0152 105.301H41.4397C41.569 103.908 42.2003 102.85 42.9596 102.85H42.9596H71.4953H71.4953C72.2546 102.85 72.8858 103.908 73.0152 105.301Z" fill="#F4C23F"/>
<path fill-rule="evenodd" clip-rule="evenodd" d="M42.9012 98.0728H42.9012C42.1236 98.0728 41.4803 99.2864 41.3728 100.866H72.9652C72.8577 99.2864 72.2144 98.0728 71.4369 98.0728H71.4369H42.9012ZM72.9606 101.866H41.3774C41.4977 103.414 42.1341 104.595 42.9012 104.595H42.9012H71.4369H71.4369C72.2039 104.595 72.8403 103.414 72.9606 101.866Z" fill="#F4C23F"/>
<path d="M50.0304 96.5251H44.6507C43.8434 70.815 26.1526 60.7649 19.206 67.1548C17.189 67.2561 13.678 77.7114 20.0784 80.6768C26.1518 79.9992 27.9496 79.3729 28.9477 77.9142C24.8325 78.5341 23.4967 78.4654 22.114 77.9142C20.239 76.8274 19.6056 76.0454 20.0784 73.9885C21.0321 71.8127 21.9231 71.3932 24.295 72.0983C22.1432 72.8473 21.6614 73.5735 22.841 75.7333C25.5432 74.625 27.2062 74.2559 30.4017 73.9885C35.1466 75.8274 35.2665 77.2594 34.6182 79.9498C32.5741 83.6172 30.4433 84.1679 24.295 81.5492C29.4918 84.4094 31.4813 86.0497 33.7458 91C34.3825 102.283 32.225 103.525 24.2949 104.522C6.65621 102.05 3.83829 94.8067 7.57425 91C10.1221 89.5169 11.6558 91.0085 14.4079 93.9079C9.5921 92.1265 8.32553 92.216 10.1914 95.5073C12.0152 97.5804 12.8879 97.9489 14.4079 98.4153C22.1023 96.5058 24.086 94.8839 22.841 91C18.0789 86.2006 11.6634 87.7429 3.79395 81.5492C-4.0755 75.3554 2.41651 49.6239 27.6392 52.3243C19.4484 47.4996 18.6245 43.4551 20.8055 39.9655C22.9865 36.4759 29.2942 35.9107 33.7458 39.9655C34.7642 42.4872 34.6744 44.0334 33.7458 46.9446C35.0144 48.13 35.7977 48.0963 37.2354 47.6716C38.4511 47.4148 38.8344 46.9281 37.2354 43.455C40.3384 45.9652 40.3909 47.3634 39.7071 49.8525C37.3242 51.7808 35.7895 52.2681 31.8557 49.8525C31.5087 45.1772 32.3461 41.0976 27.6392 42.5826C25.0914 44.5023 26.2026 46.8987 30.4017 52.3243C45.3165 62.0392 47.8125 73.5927 50.0304 96.5251Z" fill="#F4C23F" stroke="#A87A00"/>
<path d="M64.1454 96.0759H69.5251C70.3324 70.3658 88.0232 60.3157 94.9697 66.7056C96.9868 66.8068 100.498 77.2622 94.0974 80.2276C88.0239 79.55 86.2262 78.9236 85.2281 77.465C89.3433 78.0849 90.6791 78.0162 92.0618 77.465C93.9368 76.3782 94.5702 75.5962 94.0974 73.5393C93.1436 71.3634 92.2527 70.944 89.8808 71.6491C92.0326 72.3981 92.5143 73.1242 91.3348 75.284C88.6326 74.1758 86.9696 73.8067 83.7741 73.5393C79.0292 75.3782 78.9093 76.8102 79.5576 79.5006C81.6017 83.168 83.7324 83.7187 89.8808 81.0999C84.684 83.9601 82.6945 85.6005 80.43 90.5508C79.7933 101.834 81.9508 103.076 89.8808 104.073C107.52 101.601 110.337 94.3574 106.602 90.5508C104.054 89.0677 102.52 90.5592 99.7679 93.4587C104.584 91.6772 105.85 91.7668 103.984 95.0581C102.161 97.1312 101.288 97.4997 99.7679 97.966C92.0735 96.0566 90.0898 94.4347 91.3348 90.5508C96.0969 85.7513 102.512 87.2937 110.382 81.0999C118.251 74.9062 111.759 49.1747 86.5366 51.8751C94.7273 47.0504 95.5513 43.0059 93.3703 39.5163C91.1893 36.0267 84.8816 35.4615 80.4299 39.5163C79.4116 42.038 79.5014 43.5842 80.4299 46.4954C79.1614 47.6808 78.378 47.6471 76.9404 47.2223C75.7247 46.9655 75.3413 46.4788 76.9404 43.0058C73.8373 45.5159 73.7848 46.9142 74.4686 49.4033C76.8515 51.3316 78.3862 51.8189 82.3201 49.4033C82.6671 44.7279 81.8297 40.6484 86.5366 42.1334C89.0844 44.0531 87.9732 46.4495 83.7741 51.8751C68.8593 61.59 66.3633 73.1435 64.1454 96.0759Z" fill="#F4C23F" stroke="#A87A00"/>
<path d="M68.7866 110.338H64.4247C65.0223 121.786 66.9418 127.324 81.2908 131.13C93.2114 131.705 100.483 120.952 95.6851 118.48C90.887 116.008 82.3033 113.522 82.5993 111.21C83.9645 108.832 86.0301 109.089 88.4152 111.21V113.246C91.7738 113.445 92.91 113.03 93.3588 111.21C92.0986 109.124 90.247 108.162 83.9079 106.994C76.5655 107.054 74.7479 110.483 75.6203 113.246C76.4927 116.008 88.6474 120.532 85.3619 122.697C75.554 122.319 71.9876 119.526 68.7866 110.338Z" fill="#F4C23F" stroke="#A87A00"/>
<path d="M45.3531 110.155H49.7151C49.1175 121.603 47.198 127.141 32.849 130.947C20.9284 131.522 13.6565 120.769 18.4547 118.298C23.2528 115.826 31.8365 113.339 31.5404 111.028C30.1753 108.65 28.1097 108.907 25.7245 111.028V113.063C22.366 113.263 21.2298 112.847 20.781 111.028C22.0412 108.941 23.8928 107.979 30.2318 106.811C37.5743 106.872 39.3919 110.301 38.5195 113.063C37.6471 115.826 25.4924 120.349 28.7779 122.514C38.5858 122.136 42.1522 119.343 45.3531 110.155Z" fill="#F4C23F" stroke="#A87A00"/>
<path d="M61.0805 110.047H53.5198C53.0041 116.857 52.2371 120.195 49.3032 124.587C45.2952 129.328 43.8449 131.233 43.0689 134.619L46.4131 144.797C45.4278 146.788 44.862 147.287 43.7959 145.96C44.4066 144.19 44.3532 143.462 43.7959 142.471C41.1181 141.643 37.1078 143.343 39.5795 143.343C42.0511 143.343 41.1787 144.797 41.1787 144.797C40.8864 146.418 40.9298 147.261 42.0511 148.432C43.8123 149.288 44.4778 149.403 45.3953 149.304L49.3032 145.96C49.74 142.614 48.1442 139.963 46.4131 134.619C47.1476 130.419 49.3977 128.78 52.3567 126.477C52.3567 126.477 50.1517 132.399 50.0303 136.364C49.9285 139.687 51.1934 144.797 51.1934 144.797V148.432C54.6738 151.324 55.8767 153.602 57.4455 158.174C58.816 153.549 59.7073 151.049 63.6976 148.432L62.0982 144.797C62.0982 144.797 63.6069 139.715 63.6976 136.364C63.8034 132.454 62.0982 126.477 62.0982 126.477C62.0982 126.477 67.9669 129.74 66.1694 134.619C64.3718 139.498 64.4836 147.537 67.3326 149.304C70.0426 149.55 71.0725 149.377 71.9853 148.432V144.797C71.2908 143.63 71.5112 143.213 74.1662 143.343C73.8084 141.825 73.4956 141.072 69.8043 142.471V145.96C69.8043 145.96 68.7865 147.123 67.3326 145.96C65.8786 144.797 69.8043 134.619 69.8043 134.619C69.4488 131.579 68.1911 129.41 63.6976 124.587C60.6725 117.922 60.8567 115.111 61.0805 110.047Z" fill="#F4C23F" stroke="#A87A00"/>
<path d="M62.0982 96.5251H52.502C53.5677 79.8219 52.9873 69.5063 40.8702 42.1465C41.7213 28.8104 46.943 19.2239 57.1548 1.72595C66.055 17.6776 69.7506 26.5279 74.0209 42.1465C62.3426 68.8331 61.5905 79.2971 62.0982 96.5251Z" fill="#F4C23F" stroke="#A87A00"/>
<path d="M57.4456 96.2343V17.4289" stroke="#FFEBB8" stroke-width="1.5"/>
<path d="M54.5376 6.37866C45.1085 34.3247 45.2251 35.8411 45.6683 37.9299L53.0836 61.4843" stroke="#FFEBB8" stroke-width="1.5"/>
<path d="M59.6337 6.37866C69.0628 34.3247 68.9462 35.8411 68.503 37.9299L61.0876 61.4843" stroke="#FFEBB8" stroke-width="1.5"/>
<path d="M93.7949 83.2939C80.5428 87.2355 79.0178 96.0263 91.7864 103.577" stroke="#FFEBB8" stroke-width="1.5"/>
<path d="M20.9993 84.239C34.2514 88.1806 35.7763 96.9714 23.0078 104.522" stroke="#FFEBB8" stroke-width="1.5"/>
<path d="M66.1695 95.7981C65.297 60.0303 111.388 38.6569 108.48 76.4602" stroke="#FFEBB8" stroke-width="1.5"/>
<path d="M47.7453 96.5252C48.6178 60.7574 2.52676 39.384 5.43468 77.1872" stroke="#FFEBB8" stroke-width="1.5"/>
<path d="M57.0094 110.483V147.269" stroke="#FFEBB8" stroke-width="1.5"/>
<path d="M66.4602 110.629C69.2228 125.75 83.9079 131.275 88.7061 122.842" stroke="#FFEBB8" stroke-width="1.5"/>
<path d="M47.1533 110.483C44.3907 125.605 29.7056 131.13 24.9075 122.697" stroke="#FFEBB8" stroke-width="1.5"/>
<path d="M50.0304 96.5251H44.6507C43.8434 70.815 26.1526 60.7649 19.206 67.1548C17.189 67.2561 13.678 77.7114 20.0784 80.6768C26.1518 79.9992 27.9496 79.3729 28.9477 77.9142C24.8325 78.5341 23.4967 78.4654 22.114 77.9142C20.239 76.8274 19.6056 76.0454 20.0784 73.9885C21.0321 71.8127 21.9231 71.3932 24.295 72.0983C22.1432 72.8473 21.6614 73.5735 22.841 75.7333C25.5432 74.625 27.2062 74.2559 30.4017 73.9885C35.1466 75.8274 35.2665 77.2594 34.6182 79.9498C32.5741 83.6172 30.4433 84.1679 24.295 81.5492C29.4918 84.4094 31.4813 86.0497 33.7458 91C34.3825 102.283 32.225 103.525 24.2949 104.522C6.65621 102.05 3.83829 94.8067 7.57425 91C10.1221 89.5169 11.6558 91.0085 14.4079 93.9079C9.5921 92.1265 8.32553 92.216 10.1914 95.5073C12.0152 97.5804 12.8879 97.9489 14.4079 98.4153C22.1023 96.5058 24.086 94.8839 22.841 91C18.0789 86.2006 11.6634 87.7429 3.79395 81.5492C-4.0755 75.3554 2.41651 49.6239 27.6392 52.3243C19.4484 47.4996 18.6245 43.4551 20.8055 39.9655C22.9865 36.4759 29.2942 35.9107 33.7458 39.9655C34.7642 42.4872 34.6744 44.0334 33.7458 46.9446C35.0144 48.13 35.7977 48.0963 37.2354 47.6716C38.4511 47.4148 38.8344 46.9281 37.2354 43.455C40.3384 45.9652 40.3909 47.3634 39.7071 49.8525C37.3242 51.7808 35.7895 52.2681 31.8557 49.8525C31.5087 45.1772 32.3461 41.0976 27.6392 42.5826C25.0914 44.5023 26.2026 46.8987 30.4017 52.3243C45.3165 62.0392 47.8125 73.5927 50.0304 96.5251Z" stroke="#A87A00"/>
<path d="M64.1454 96.0759H69.5251C70.3324 70.3658 88.0232 60.3157 94.9697 66.7056C96.9868 66.8068 100.498 77.2622 94.0974 80.2276C88.0239 79.55 86.2262 78.9236 85.2281 77.465C89.3433 78.0849 90.6791 78.0162 92.0618 77.465C93.9368 76.3782 94.5702 75.5962 94.0974 73.5393C93.1436 71.3634 92.2527 70.944 89.8808 71.6491C92.0326 72.3981 92.5143 73.1242 91.3348 75.284C88.6326 74.1758 86.9696 73.8067 83.7741 73.5393C79.0292 75.3782 78.9093 76.8102 79.5576 79.5006C81.6017 83.168 83.7324 83.7187 89.8808 81.0999C84.684 83.9601 82.6945 85.6005 80.43 90.5508C79.7933 101.834 81.9508 103.076 89.8808 104.073C107.52 101.601 110.337 94.3574 106.602 90.5508C104.054 89.0677 102.52 90.5592 99.7679 93.4587C104.584 91.6772 105.85 91.7668 103.984 95.0581C102.161 97.1312 101.288 97.4997 99.7679 97.966C92.0735 96.0566 90.0898 94.4347 91.3348 90.5508C96.0969 85.7513 102.512 87.2937 110.382 81.0999C118.251 74.9062 111.759 49.1747 86.5366 51.8751C94.7273 47.0504 95.5513 43.0059 93.3703 39.5163C91.1893 36.0267 84.8816 35.4615 80.4299 39.5163C79.4116 42.038 79.5014 43.5842 80.4299 46.4954C79.1614 47.6808 78.378 47.6471 76.9404 47.2223C75.7247 46.9655 75.3413 46.4788 76.9404 43.0058C73.8373 45.5159 73.7848 46.9142 74.4686 49.4033C76.8515 51.3316 78.3862 51.8189 82.3201 49.4033C82.6671 44.7279 81.8297 40.6484 86.5366 42.1334C89.0844 44.0531 87.9732 46.4495 83.7741 51.8751C68.8593 61.59 66.3633 73.1435 64.1454 96.0759Z" stroke="#A87A00"/>
<path d="M68.7866 110.338H64.4247C65.0223 121.786 66.9418 127.324 81.2908 131.13C93.2114 131.705 100.483 120.952 95.6851 118.48C90.887 116.008 82.3033 113.522 82.5993 111.21C83.9645 108.832 86.0301 109.089 88.4152 111.21V113.246C91.7738 113.445 92.91 113.03 93.3588 111.21C92.0986 109.124 90.247 108.162 83.9079 106.994C76.5655 107.054 74.7479 110.483 75.6203 113.246C76.4927 116.008 88.6474 120.532 85.3619 122.697C75.554 122.319 71.9876 119.526 68.7866 110.338Z" stroke="#A87A00"/>
<path d="M45.3531 110.155H49.7151C49.1175 121.603 47.198 127.141 32.849 130.947C20.9284 131.522 13.6565 120.769 18.4547 118.298C23.2528 115.826 31.8365 113.339 31.5404 111.028C30.1753 108.65 28.1097 108.907 25.7245 111.028V113.063C22.366 113.263 21.2298 112.847 20.781 111.028C22.0412 108.941 23.8928 107.979 30.2318 106.811C37.5743 106.872 39.3919 110.301 38.5195 113.063C37.6471 115.826 25.4924 120.349 28.7779 122.514C38.5858 122.136 42.1522 119.343 45.3531 110.155Z" stroke="#A87A00"/>
<path d="M61.0805 110.047H53.5198C53.0041 116.857 52.2371 120.195 49.3032 124.587C45.2952 129.328 43.8449 131.233 43.0689 134.619L46.4131 144.797C45.4278 146.788 44.862 147.287 43.7959 145.96C44.4066 144.19 44.3532 143.462 43.7959 142.471C41.1181 141.643 37.1078 143.343 39.5795 143.343C42.0511 143.343 41.1787 144.797 41.1787 144.797C40.8864 146.418 40.9298 147.261 42.0511 148.432C43.8123 149.288 44.4778 149.403 45.3953 149.304L49.3032 145.96C49.74 142.614 48.1442 139.963 46.4131 134.619C47.1476 130.419 49.3977 128.78 52.3567 126.477C52.3567 126.477 50.1517 132.399 50.0303 136.364C49.9285 139.687 51.1934 144.797 51.1934 144.797V148.432C54.6738 151.324 55.8767 153.602 57.4455 158.174C58.816 153.549 59.7073 151.049 63.6976 148.432L62.0982 144.797C62.0982 144.797 63.6069 139.715 63.6976 136.364C63.8034 132.454 62.0982 126.477 62.0982 126.477C62.0982 126.477 67.9669 129.74 66.1694 134.619C64.3718 139.498 64.4836 147.537 67.3326 149.304C70.0426 149.55 71.0725 149.377 71.9853 148.432V144.797C71.2908 143.63 71.5112 143.213 74.1662 143.343C73.8084 141.825 73.4956 141.072 69.8043 142.471V145.96C69.8043 145.96 68.7865 147.123 67.3326 145.96C65.8786 144.797 69.8043 134.619 69.8043 134.619C69.4488 131.579 68.1911 129.41 63.6976 124.587C60.6725 117.922 60.8567 115.111 61.0805 110.047Z" stroke="#A87A00"/>
<path d="M62.0982 96.5251H52.502C53.5677 79.8219 52.9873 69.5063 40.8702 42.1465C41.7213 28.8104 46.943 19.2239 57.1548 1.72595C66.055 17.6776 69.7506 26.5279 74.0209 42.1465C62.3426 68.8331 61.5905 79.2971 62.0982 96.5251Z" stroke="#A87A00"/>
</svg>
